<svg width="20" height="20" viewBox="0 0 20 20" fill="none" xmlns="http://www.w3.org/2000/svg">
<path d="M3.33336 16.6663C2.87502 16.6663 2.48252 16.503 2.15585 16.1763C1.82919 15.8497 1.66613 15.4575 1.66669 14.9997V4.99968C1.66669 4.54134 1.83002 4.14884 2.15669 3.82218C2.48336 3.49551 2.87558 3.33245 3.33336 3.33301H16.6667C17.125 3.33301 17.5175 3.49634 17.8442 3.82301C18.1709 4.14968 18.3339 4.5419 18.3334 4.99968V14.9997C18.3334 15.458 18.17 15.8505 17.8434 16.1772C17.5167 16.5038 17.1245 16.6669 16.6667 16.6663H3.33336ZM16.6667 6.66634L10.4375 10.5622C10.3681 10.6038 10.295 10.6352 10.2184 10.6563C10.1417 10.6775 10.0689 10.6877 10 10.6872C9.93058 10.6872 9.85752 10.6769 9.78086 10.6563C9.70419 10.6358 9.63141 10.6044 9.56252 10.5622L3.33336 6.66634V14.9997H16.6667V6.66634ZM10 9.16634L16.6667 4.99968H3.33336L10 9.16634ZM3.33336 6.87468V5.64551V5.66634V5.65634V6.87468Z" fill="#F3F1EB"/>
</svg>
