<svg width="15" height="15" viewBox="0 0 15 15" fill="none" xmlns="http://www.w3.org/2000/svg">
<path d="M14.125 15C14.2639 15 14.4097 14.9964 14.5625 14.9892C14.7153 14.9819 14.8611 14.9717 15 14.9583V10.0833L10.8333 9.25L8.41667 11.6667C7.36111 11.0278 6.39222 10.2708 5.51 9.39583C4.62778 8.52083 3.89528 7.58333 3.3125 6.58333L5.6875 4.1875L4.91667 0H0.041666C0.0138884 0.138889 0 0.284722 0 0.4375V0.875C0 2.66667 0.399167 4.41333 1.1975 6.115C1.99583 7.81667 3.05139 9.32694 4.36417 10.6458C5.67694 11.9653 7.18389 13.0208 8.885 13.8125C10.5861 14.6042 12.3328 15 14.125 15ZM2.52083 5C2.28472 4.45833 2.10417 3.90972 1.97917 3.35417C1.85417 2.79861 1.75694 2.23611 1.6875 1.66667H3.54167L3.89583 3.625L2.52083 5ZM9.97917 12.4583L11.375 11.0625L13.3333 11.4583V13.2917C12.7639 13.25 12.1978 13.1597 11.635 13.0208C11.0722 12.8819 10.5203 12.6944 9.97917 12.4583Z" fill="#F3F1EB"/>
</svg>
