<svg width="52" height="65" viewBox="0 0 52 65" fill="none" xmlns="http://www.w3.org/2000/svg">
<path d="M26 32.5C27.7875 32.5 29.3183 31.863 30.5922 30.589C31.8662 29.315 32.5022 27.7853 32.5 26C32.5 24.2125 31.863 22.6818 30.589 21.4078C29.315 20.1338 27.7853 19.4978 26 19.5C24.2125 19.5 22.6817 20.137 21.4077 21.411C20.1337 22.685 19.4978 24.2147 19.5 26C19.5 27.7875 20.137 29.3183 21.411 30.5923C22.685 31.8663 24.2147 32.5022 26 32.5ZM26 56.3875C32.6083 50.3208 37.5104 44.8088 40.7062 39.8515C43.9021 34.8942 45.5 30.4937 45.5 26.65C45.5 20.7458 43.6172 15.912 39.8515 12.1485C36.0858 8.385 31.4687 6.50217 26 6.5C20.5292 6.5 15.9109 8.38283 12.1452 12.1485C8.37958 15.9142 6.49783 20.748 6.5 26.65C6.5 30.4958 8.09792 34.8974 11.2937 39.8548C14.4896 44.8121 19.3917 50.323 26 56.3875ZM26 65C17.2792 57.5792 10.7662 50.687 6.461 44.3235C2.15583 37.96 0.00216667 32.0688 0 26.65C0 18.525 2.61408 12.0521 7.84225 7.23125C13.0704 2.41042 19.123 0 26 0C32.8792 0 38.9328 2.41042 44.161 7.23125C49.3892 12.0521 52.0022 18.525 52 26.65C52 32.0667 49.8463 37.9578 45.539 44.3235C41.2317 50.6892 34.7187 57.5813 26 65Z" fill="#EBE9E3"/>
</svg>
