<svg width="38" height="38" viewBox="0 0 38 38" fill="none" xmlns="http://www.w3.org/2000/svg">
<path d="M19.0003 15.0737C18.2237 15.0737 17.4645 15.304 16.8188 15.7354C16.173 16.1669 15.6698 16.7802 15.3726 17.4977C15.0754 18.2152 14.9976 19.0047 15.1491 19.7664C15.3006 20.5281 15.6746 21.2277 16.2238 21.7769C16.7729 22.3261 17.4726 22.7 18.2343 22.8515C18.996 23.0031 19.7855 22.9253 20.503 22.6281C21.2205 22.3309 21.8338 21.8276 22.2652 21.1819C22.6967 20.5361 22.927 19.7769 22.927 19.0003C22.927 18.4847 22.8254 17.9741 22.6281 17.4977C22.4308 17.0212 22.1415 16.5884 21.7769 16.2238C21.4123 15.8591 20.9794 15.5699 20.503 15.3726C20.0266 15.1752 19.516 15.0737 19.0003 15.0737ZM34.7228 11.1945C34.7145 9.97178 34.4893 8.76023 34.0578 7.61616C33.74 6.77899 33.2483 6.01872 32.6151 5.38554C31.9819 4.75235 31.2217 4.26063 30.3845 3.94283C29.2404 3.51131 28.0289 3.28616 26.8062 3.27783C24.7637 3.16699 24.162 3.16699 19.0003 3.16699C13.8387 3.16699 13.237 3.16699 11.1945 3.27783C9.97178 3.28616 8.76023 3.51131 7.61616 3.94283C6.77899 4.26063 6.01872 4.75235 5.38554 5.38554C4.75235 6.01872 4.26063 6.77899 3.94283 7.61616C3.51131 8.76023 3.28616 9.97178 3.27783 11.1945C3.16699 13.237 3.16699 13.8387 3.16699 19.0003C3.16699 24.162 3.16699 24.7637 3.27783 26.8062C3.29487 28.0332 3.51972 29.2484 3.94283 30.4003C4.25922 31.2337 4.75053 31.9895 5.38366 32.617C6.01413 33.254 6.77603 33.7457 7.61616 34.0578C8.76023 34.4893 9.97178 34.7145 11.1945 34.7228C13.237 34.8337 13.8387 34.8337 19.0003 34.8337C24.162 34.8337 24.7637 34.8337 26.8062 34.7228C28.0289 34.7145 29.2404 34.4893 30.3845 34.0578C31.2246 33.7457 31.9865 33.254 32.617 32.617C33.2501 31.9895 33.7414 31.2337 34.0578 30.4003C34.4889 29.2506 34.714 28.034 34.7228 26.8062C34.8337 24.7637 34.8337 24.162 34.8337 19.0003C34.8337 13.8387 34.8337 13.237 34.7228 11.1945ZM30.7012 23.8612C30.6503 24.8382 30.4418 25.8007 30.0837 26.7112C29.7763 27.4707 29.3193 28.1606 28.74 28.74C28.1606 29.3193 27.4707 29.7763 26.7112 30.0837C25.7921 30.4218 24.8243 30.609 23.8453 30.6378H14.1553C13.1764 30.609 12.2086 30.4218 11.2895 30.0837C10.5043 29.7919 9.79526 29.3264 9.21533 28.722C8.64163 28.154 8.19858 27.4678 7.91699 26.7112C7.57746 25.793 7.39545 24.8241 7.37866 23.8453V14.1553C7.39545 13.1765 7.57746 12.2076 7.91699 11.2895C8.20877 10.5043 8.67426 9.79526 9.27866 9.21533C9.84919 8.64473 10.5347 8.20214 11.2895 7.91699C12.2086 7.5788 13.1764 7.39166 14.1553 7.36283H23.8453C24.8243 7.39166 25.7921 7.5788 26.7112 7.91699C27.4963 8.20877 28.2054 8.67426 28.7853 9.27866C29.359 9.84668 29.8021 10.5329 30.0837 11.2895C30.4218 12.2086 30.609 13.1764 30.6378 14.1553V19.0003C30.6378 22.262 30.7487 22.5945 30.7012 23.8453V23.8612ZM28.1678 12.0812C27.9793 11.5697 27.6821 11.1053 27.2967 10.7198C26.9112 10.3344 26.4468 10.0372 25.9353 9.84866C25.2331 9.60524 24.4935 9.48733 23.7503 9.50033H14.2503C13.5034 9.50763 12.7637 9.647 12.0653 9.91199C11.5617 10.0919 11.1022 10.377 10.7172 10.7483C10.3323 11.1196 10.0308 11.5685 9.83283 12.0653C9.60289 12.7705 9.49055 13.5087 9.50033 14.2503V23.7503C9.51602 24.4964 9.65513 25.2347 9.91199 25.9353C10.1005 26.4468 10.3977 26.9112 10.7832 27.2967C11.1686 27.6821 11.633 27.9793 12.1445 28.1678C12.82 28.4163 13.5309 28.5552 14.2503 28.5795H23.7503C24.4972 28.5722 25.237 28.4328 25.9353 28.1678C26.4468 27.9793 26.9112 27.6821 27.2967 27.2967C27.6821 26.9112 27.9793 26.4468 28.1678 25.9353C28.4328 25.237 28.5722 24.4972 28.5795 23.7503V14.2503C28.5799 13.5027 28.4403 12.7616 28.1678 12.0653V12.0812ZM19.0003 25.0487C18.2068 25.0487 17.4211 24.8921 16.6881 24.5879C15.9552 24.2838 15.2895 23.838 14.7291 23.2762C14.1687 22.7143 13.7247 22.0474 13.4225 21.3137C13.1202 20.58 12.9657 19.7939 12.9678 19.0003C12.9678 17.8034 13.323 16.6334 13.9883 15.6384C14.6536 14.6434 15.5991 13.8682 16.7052 13.4109C17.8113 12.9536 19.0283 12.8347 20.202 13.0694C21.3757 13.3041 22.4533 13.8817 23.2986 14.7291C24.1438 15.5766 24.7186 16.6558 24.9502 17.8301C25.1818 19.0044 25.0597 20.221 24.5995 21.3259C24.1393 22.4308 23.3616 23.3743 22.3649 24.037C21.3682 24.6997 20.1972 25.0518 19.0003 25.0487ZM25.3337 14.1395C24.9837 14.1024 24.6597 13.9372 24.4243 13.6755C24.1889 13.4139 24.0587 13.0744 24.0587 12.7224C24.0587 12.3704 24.1889 12.0309 24.4243 11.7693C24.6597 11.5076 24.9837 11.3424 25.3337 11.3053C25.6837 11.3424 26.0076 11.5076 26.243 11.7693C26.4784 12.0309 26.6087 12.3704 26.6087 12.7224C26.6087 13.0744 26.4784 13.4139 26.243 13.6755C26.0076 13.9372 25.6837 14.1024 25.3337 14.1395Z" fill="#F7F5EF"/>
</svg>
