<svg width="59" height="40" viewBox="0 0 59 40" fill="none" xmlns="http://www.w3.org/2000/svg">
<path d="M5.9 40C4.2775 40 2.88805 39.51 1.73165 38.53C0.575254 37.55 -0.00196166 36.3733 5.00849e-06 35V5C5.00849e-06 3.625 0.578205 2.4475 1.7346 1.4675C2.891 0.487504 4.27947 -0.00166242 5.9 4.24448e-06H53.1C54.7225 4.24448e-06 56.1119 0.490004 57.2683 1.47C58.4247 2.45 59.002 3.62667 59 5V35C59 36.375 58.4218 37.5525 57.2654 38.5325C56.109 39.5125 54.7205 40.0017 53.1 40H5.9ZM53.1 10L31.0487 21.6875C30.8029 21.8125 30.5443 21.9067 30.2729 21.97C30.0015 22.0333 29.7439 22.0642 29.5 22.0625C29.2542 22.0625 28.9956 22.0317 28.7241 21.97C28.4528 21.9083 28.1951 21.8142 27.9513 21.6875L5.9 10V35H53.1V10ZM29.5 17.5L53.1 5H5.9L29.5 17.5ZM5.9 10.625V6.9375V7V6.97V10.625Z" fill="#EBE9E3"/>
</svg>
