<svg width="40" height="40" viewBox="0 0 40 40" fill="none" xmlns="http://www.w3.org/2000/svg">
<path d="M19.9997 36.6663C10.7947 36.6663 3.33301 29.2047 3.33301 19.9997C3.33301 10.7947 10.7947 3.33301 19.9997 3.33301C29.2047 3.33301 36.6663 10.7947 36.6663 19.9997C36.6663 29.2047 29.2047 36.6663 19.9997 36.6663ZM14.8163 21.9497L14.838 21.938L16.288 26.7213C16.4747 27.2397 16.7313 27.333 17.043 27.2897C17.3563 27.248 17.5213 27.0797 17.7263 26.883L19.7063 24.9697L23.9563 28.1163C24.733 28.5447 25.2913 28.323 25.4847 27.3963L28.2463 14.3597C28.5513 13.1463 28.018 12.6597 27.0763 13.0463L10.8547 19.313C9.74801 19.7563 9.75467 20.3763 10.6547 20.6513L14.8163 21.9497Z" fill="#F7F5EF"/>
</svg>
