<svg width="36" height="36" viewBox="0 0 36 36" fill="none" xmlns="http://www.w3.org/2000/svg">
<g clip-path="url(#clip0_201_357)">
<path d="M17.9997 0.719727C8.45613 0.719727 0.719727 8.45613 0.719727 17.9997C0.719727 27.5433 8.45613 35.2797 17.9997 35.2797C27.5433 35.2797 35.2797 27.5433 35.2797 17.9997C35.2797 8.45613 27.5433 0.719727 17.9997 0.719727ZM24.6453 20.2155C24.6453 20.2155 26.1735 21.7239 26.5497 22.4241C26.5605 22.4385 26.5659 22.4529 26.5695 22.4601C26.7225 22.7175 26.7585 22.9173 26.6829 23.0667C26.5569 23.3151 26.1249 23.4375 25.9773 23.4483H23.2773C23.0901 23.4483 22.6977 23.3997 22.2225 23.0721C21.8571 22.8165 21.4971 22.3971 21.1461 21.9885C20.6223 21.3801 20.1687 20.8545 19.7115 20.8545C19.6535 20.8544 19.5957 20.8635 19.5405 20.8815C19.1949 20.9931 18.7521 21.4863 18.7521 22.8003C18.7521 23.2107 18.4281 23.4465 18.1995 23.4465H16.9629C16.5417 23.4465 14.3475 23.2989 12.4035 21.2487C10.0239 18.7377 7.88193 13.7013 7.86393 13.6545C7.72893 13.3287 8.00793 13.1541 8.31213 13.1541H11.0391C11.4027 13.1541 11.5215 13.3755 11.6043 13.5717C11.7015 13.8003 12.0579 14.7093 12.6429 15.7317C13.5915 17.3985 14.1729 18.0753 14.6391 18.0753C14.7265 18.0743 14.8124 18.0521 14.8893 18.0105C15.4977 17.6721 15.3843 15.5031 15.3573 15.0531C15.3573 14.9685 15.3555 14.0829 15.0441 13.6581C14.8209 13.3503 14.4411 13.2333 14.2107 13.1901C14.304 13.0614 14.4268 12.9571 14.5689 12.8859C14.9865 12.6771 15.7389 12.6465 16.4859 12.6465H16.9017C17.7117 12.6573 17.9205 12.7095 18.2139 12.7833C18.8079 12.9255 18.8205 13.3089 18.7683 14.6211C18.7521 14.9937 18.7359 15.4149 18.7359 15.9117C18.7359 16.0197 18.7305 16.1349 18.7305 16.2573C18.7125 16.9251 18.6909 17.6829 19.1625 17.9943C19.224 18.0329 19.2951 18.0535 19.3677 18.0537C19.5315 18.0537 20.0247 18.0537 21.3603 15.7623C21.7722 15.0248 22.1302 14.2584 22.4313 13.4691C22.4583 13.4223 22.5375 13.2783 22.6311 13.2225C22.7002 13.1873 22.7768 13.1694 22.8543 13.1703H26.0601C26.4093 13.1703 26.6487 13.2225 26.6937 13.3575C26.7729 13.5717 26.6793 14.2251 25.2159 16.2069L24.5625 17.0691C23.2359 18.8079 23.2359 18.8961 24.6453 20.2155Z" fill="#F7F5EF"/>
</g>
<defs>
<clipPath id="clip0_201_357">
<rect width="36" height="36" fill="white"/>
</clipPath>
</defs>
</svg>
