<svg width="21" height="21" viewBox="0 0 21 21" fill="none" xmlns="http://www.w3.org/2000/svg">
<path d="M13.1286 0C11.9048 0.000709124 10.698 0.286294 9.6038 0.834134C8.50957 1.38197 7.55797 2.17701 6.82439 3.15628C6.09081 4.13555 5.5954 5.27213 5.37739 6.47601C5.15939 7.67988 5.22479 8.91796 5.56841 10.0922L0.329153 15.3291C0.224686 15.4336 0.141847 15.5577 0.0853703 15.6943C0.0288931 15.8309 -0.000115891 15.9772 3.47945e-07 16.125V19.875C3.47945e-07 20.1734 0.118559 20.4595 0.329596 20.6705C0.540632 20.8815 0.826859 21 1.12531 21H4.87634C5.17479 21 5.46102 20.8815 5.67206 20.6705C5.88309 20.4595 6.00165 20.1734 6.00165 19.875V18.75H7.12696C7.42541 18.75 7.71164 18.6315 7.92267 18.4205C8.13371 18.2095 8.25227 17.9234 8.25227 17.625V16.5H9.37758C9.5254 16.5001 9.6718 16.4711 9.8084 16.4147C9.94501 16.3582 10.0692 16.2754 10.1737 16.1709L10.9108 15.4331C11.994 15.75 13.1327 15.8304 14.2497 15.669C15.3667 15.5076 16.436 15.1081 17.3851 14.4976C18.3342 13.8871 19.141 13.0798 19.7509 12.1304C20.3608 11.181 20.7595 10.1117 20.9199 8.99486C21.0804 7.87802 20.999 6.73974 20.6811 5.65711C20.3633 4.57447 19.8164 3.57277 19.0776 2.71982C18.3388 1.86687 17.4252 1.18261 16.3989 0.713355C15.3725 0.244104 14.2572 0.000827612 13.1286 0ZM13.1286 13.5C12.4191 13.5015 11.7157 13.3679 11.0562 13.1062C10.8493 13.0176 10.6206 12.993 10.3996 13.0356C10.1786 13.0782 9.97548 13.1861 9.81645 13.3453L8.9087 14.25H7.12696C6.82851 14.25 6.54228 14.3685 6.33125 14.5795C6.12021 14.7905 6.00165 15.0766 6.00165 15.375V16.5H4.87634C4.57789 16.5 4.29166 16.6185 4.08063 16.8295C3.86959 17.0405 3.75103 17.3266 3.75103 17.625V18.75H2.25062V16.5938L7.65679 11.1891C7.81587 11.0302 7.92367 10.8272 7.96629 10.6065C8.00891 10.3858 7.9844 10.1573 7.89592 9.95062C7.45187 8.83245 7.37811 7.60141 7.68549 6.43824C7.99287 5.27507 8.66518 4.24108 9.60372 3.48807C10.5423 2.73506 11.6976 2.30271 12.9 2.25452C14.1024 2.20632 15.2886 2.54481 16.2845 3.22028C17.2803 3.89576 18.0333 4.87263 18.4328 6.00746C18.8323 7.14229 18.8574 8.37529 18.5043 9.52541C18.1512 10.6755 17.4386 11.6822 16.471 12.3976C15.5035 13.1129 14.332 13.4993 13.1286 13.5ZM16.5045 6C16.5045 6.29667 16.4165 6.58668 16.2517 6.83335C16.0868 7.08003 15.8525 7.27229 15.5783 7.38582C15.3041 7.49935 15.0025 7.52906 14.7114 7.47118C14.4204 7.4133 14.153 7.27044 13.9432 7.06066C13.7333 6.85088 13.5904 6.58361 13.5325 6.29263C13.4747 6.00166 13.5044 5.70006 13.6179 5.42597C13.7315 5.15189 13.9238 4.91762 14.1705 4.7528C14.4173 4.58797 14.7074 4.5 15.0041 4.5C15.4021 4.5 15.7837 4.65804 16.0651 4.93934C16.3465 5.22064 16.5045 5.60217 16.5045 6Z" fill="#404040"/>
</svg>
