<svg width="22" height="21" viewBox="0 0 22 21" fill="none" xmlns="http://www.w3.org/2000/svg">
<path d="M9.77778 12.6833V10.5833H12.2222V12.6833H9.77778ZM4.88889 12.6833V10.5833H7.33333V12.6833H4.88889ZM14.6667 12.6833V10.5833H17.1111V12.6833H14.6667ZM9.77778 16.8833V14.7833H12.2222V16.8833H9.77778ZM4.88889 16.8833V14.7833H7.33333V16.8833H4.88889ZM14.6667 16.8833V14.7833H17.1111V16.8833H14.6667ZM0 21.0833V2.18325H3.66667V0.083252H6.11111V2.18325H15.8889V0.083252H18.3333V2.18325H22V21.0833H0ZM2.44444 18.9833H19.5556V8.48325H2.44444V18.9833ZM2.44444 6.38325H19.5556V4.28325H2.44444V6.38325Z" fill="#404040"/>
</svg>
