<svg width="22" height="22" viewBox="0 0 22 22" fill="none" xmlns="http://www.w3.org/2000/svg">
<path d="M5.35871 7H12.182V5C12.182 4.16667 11.8503 3.45833 11.187 2.875C10.5236 2.29167 9.71805 2 8.77037 2C7.82269 2 7.01716 2.29167 6.35378 2.875C5.6904 3.45833 5.35871 4.16667 5.35871 5V7ZM-0.327377 21V7H3.08428V5C3.08428 3.61667 3.63886 2.43733 4.74803 1.462C5.85719 0.486667 7.19797 -0.000665984 8.77037 6.8306e-07C10.3435 6.8306e-07 11.6847 0.487667 12.7938 1.463C13.903 2.43833 14.4572 3.61733 14.4565 5V7H17.8681V10.3C17.5269 10.2 17.1714 10.125 16.8014 10.075C16.4314 10.025 16.0289 10 15.5937 10V9H1.94706V19H7.97431C8.12594 19.4 8.27757 19.746 8.4292 20.038C8.58083 20.33 8.78932 20.6507 9.05467 21H-0.327377ZM15.5937 22C14.0205 22 12.6794 21.5123 11.5702 20.537C10.461 19.5617 9.90683 18.3827 9.90759 17C9.90759 15.6167 10.4622 14.4373 11.5713 13.462C12.6805 12.4867 14.0213 11.9993 15.5937 12C17.1668 12 18.508 12.4877 19.6172 13.463C20.7263 14.4383 21.2805 15.6173 21.2798 17C21.2798 18.3833 20.7252 19.5627 19.616 20.538C18.5068 21.5133 17.1661 22.0007 15.5937 22ZM17.4701 19.35L18.2661 18.65L16.1623 16.8V14H15.0251V17.2L17.4701 19.35Z" fill="#404040"/>
</svg>
