<svg width="20" height="22" viewBox="0 0 20 22" fill="none" xmlns="http://www.w3.org/2000/svg">
<g clip-path="url(#clip0_145_2491)">
<path d="M0 22V7.33333H3.75V5.2381C3.75 3.78889 4.35958 2.5534 5.57875 1.53162C6.79792 0.509842 8.27167 -0.000697697 10 7.15587e-07C11.7292 7.15587e-07 13.2033 0.51089 14.4225 1.53267C15.6417 2.55445 16.2508 3.78959 16.25 5.2381V7.33333H20V22H0ZM6.25 7.33333H13.75V5.2381C13.75 4.36508 13.3854 3.62302 12.6562 3.01191C11.9271 2.40079 11.0417 2.09524 10 2.09524C8.95833 2.09524 8.07292 2.40079 7.34375 3.01191C6.61458 3.62302 6.25 4.36508 6.25 5.2381V7.33333ZM2.5 19.9048H17.5V9.42857H2.5V19.9048Z" fill="#404040"/>
<path d="M11.5132 10.625C11.0199 10.6254 10.5338 10.7425 10.0944 10.9667C9.65507 11.1909 9.27497 11.5158 8.98514 11.9149C8.69532 12.314 8.50399 12.776 8.42678 13.2631C8.34957 13.7503 8.38867 14.2488 8.54089 14.718L6.29206 16.9664C6.26305 16.9954 6.24004 17.0299 6.22436 17.0679C6.20868 17.1058 6.20062 17.1465 6.20065 17.1875V18.75C6.20065 18.8329 6.23358 18.9124 6.29218 18.971C6.35079 19.0296 6.43027 19.0625 6.51315 19.0625H8.07565C8.15853 19.0625 8.23802 19.0296 8.29662 18.971C8.35523 18.9124 8.38815 18.8329 8.38815 18.75V18.125H9.01315C9.09603 18.125 9.17552 18.0921 9.23412 18.0335C9.29273 17.9749 9.32565 17.8954 9.32565 17.8125V17.1875H9.95065C9.9917 17.1875 10.0324 17.1795 10.0703 17.1638C10.1082 17.1481 10.1427 17.1251 10.1717 17.0961L10.5452 16.7223C10.9747 16.8617 11.4293 16.9064 11.8777 16.8533C12.3262 16.8002 12.7578 16.6505 13.1428 16.4146C13.5279 16.1787 13.8572 15.8621 14.1082 15.4867C14.3591 15.1113 14.5257 14.686 14.5965 14.24C14.6674 13.794 14.6407 13.338 14.5183 12.9033C14.3959 12.4686 14.1808 12.0656 13.8878 11.722C13.5947 11.3785 13.2307 11.1025 12.8208 10.9131C12.4108 10.7237 11.9647 10.6254 11.5132 10.625ZM12.2944 13.5938C12.1708 13.5938 12.05 13.5571 11.9472 13.4884C11.8444 13.4197 11.7643 13.3221 11.717 13.2079C11.6697 13.0937 11.6573 12.9681 11.6814 12.8468C11.7055 12.7256 11.7651 12.6142 11.8525 12.5268C11.9399 12.4394 12.0512 12.3799 12.1725 12.3558C12.2937 12.3316 12.4194 12.344 12.5336 12.3913C12.6478 12.4386 12.7454 12.5187 12.8141 12.6215C12.8827 12.7243 12.9194 12.8451 12.9194 12.9688C12.9194 13.1345 12.8536 13.2935 12.7363 13.4107C12.6191 13.5279 12.4602 13.5938 12.2944 13.5938Z" fill="#404040"/>
</g>
<defs>
<clipPath id="clip0_145_2491">
<rect width="20" height="22" fill="white"/>
</clipPath>
</defs>
</svg>
