<svg width="24" height="21" viewBox="0 0 24 21" fill="none" xmlns="http://www.w3.org/2000/svg">
<path d="M4.02557 2.33333C4.02557 1.05 4.98949 0 6.16761 0C7.34574 0 8.30966 1.05 8.30966 2.33333C8.30966 3.61667 7.34574 4.66667 6.16761 4.66667C4.98949 4.66667 4.02557 3.61667 4.02557 2.33333ZM0.8125 7C0.8125 6.35567 1.33483 5.83333 1.97917 5.83333H5.59666C6.66084 5.83333 7.69465 5.47852 8.53455 4.82502L13.8506 0.688745C14.3406 0.307461 15.0465 0.392647 15.4317 0.879572C15.8213 1.37204 15.735 2.08766 15.2395 2.4734L13.8722 3.5378C13.1533 4.09742 13.549 5.25 14.46 5.25C14.6402 5.25 14.8167 5.19914 14.9693 5.10328L22.2409 0.533478C22.7235 0.230162 23.3573 0.339937 23.7098 0.787918C24.0809 1.25959 24.0119 1.94046 23.5536 2.32805L18.0675 6.9683C16.2845 8.47634 15.2105 10.659 15.1034 12.9917L14.7849 19.9301C14.7574 20.5288 14.2641 21 13.6648 21C13.0655 21 12.5721 20.5288 12.5446 19.9301L12.2062 12.5565C12.1174 10.6219 10.8266 8.95002 8.97746 8.37451C8.5348 8.23674 8.07386 8.16667 7.61026 8.16667H1.97917C1.33483 8.16667 0.8125 7.64433 0.8125 7Z" fill="#404040"/>
</svg>
