<svg width="23" height="21" viewBox="0 0 23 21" fill="none" xmlns="http://www.w3.org/2000/svg">
<path d="M14.4942 13.6709L15.4878 15.6184C15.4878 15.6184 19.9541 16.4829 19.9541 18.5391C19.9541 20 17.967 20 17.967 20H12.675L10.0696 18.6805" stroke="#404040" stroke-width="2" stroke-linecap="round" stroke-linejoin="round"/>
<path d="M8.53986 13.6709L7.54747 15.6184C7.54747 15.6184 3.07996 16.4829 3.07996 18.5391C3.07996 20 5.06706 20 5.06706 20H7.46409L10.0696 18.6805L13.254 16.8333" stroke="#404040" stroke-width="2" stroke-linecap="round" stroke-linejoin="round"/>
<path d="M1.09521 14.644C1.09521 14.644 3.57678 14.1574 5.06595 13.6708C6.55396 6.85407 11.0192 7.34068 11.5171 7.34068C12.0139 7.34068 16.4802 6.85407 17.9682 13.6708C19.4574 14.1564 21.939 14.644 21.939 14.644M11.5171 5.22219C12.1313 5.22219 12.7204 4.99978 13.1547 4.60387C13.5891 4.20796 13.8331 3.67099 13.8331 3.1111C13.8331 2.5512 13.5891 2.01423 13.1547 1.61833C12.7204 1.22242 12.1313 1 11.5171 1C10.9029 1 10.3138 1.22242 9.87945 1.61833C9.44512 2.01423 9.20112 2.5512 9.20112 3.1111C9.20112 3.67099 9.44512 4.20796 9.87945 4.60387C10.3138 4.99978 10.9029 5.22219 11.5171 5.22219Z" stroke="#404040" stroke-width="2" stroke-linecap="round" stroke-linejoin="round"/>
</svg>
