<svg width="25" height="22" viewBox="0 0 25 22" fill="none" xmlns="http://www.w3.org/2000/svg">
<path d="M12.58 17.7222C14.1325 17.7222 15.4523 17.1873 16.5395 16.1174C17.6266 15.0476 18.1698 13.7492 18.169 12.2222C18.169 10.6944 17.6254 9.39563 16.5382 8.32578C15.4511 7.25593 14.1316 6.72141 12.58 6.72222C11.0275 6.72222 9.70764 7.25715 8.62048 8.327C7.53332 9.39685 6.99015 10.6953 6.99097 12.2222C6.99097 13.75 7.53456 15.0488 8.62172 16.1187C9.70888 17.1885 11.0283 17.723 12.58 17.7222ZM12.58 15.2778C11.7106 15.2778 10.9757 14.9824 10.3754 14.3917C9.77512 13.8009 9.47497 13.0778 9.47497 12.2222C9.47497 11.3667 9.77512 10.6435 10.3754 10.0528C10.9757 9.46204 11.7106 9.16667 12.58 9.16667C13.4494 9.16667 14.1842 9.46204 14.7845 10.0528C15.3848 10.6435 15.685 11.3667 15.685 12.2222C15.685 13.0778 15.3848 13.8009 14.7845 14.3917C14.1842 14.9824 13.4494 15.2778 12.58 15.2778ZM2.64398 22C1.96088 22 1.37589 21.7604 0.889029 21.2813C0.402165 20.8022 0.159147 20.227 0.159975 19.5556V4.88889C0.159975 4.21667 0.403407 3.641 0.890271 3.16189C1.37714 2.68278 1.9617 2.44363 2.64398 2.44444H6.55627L8.85397 0H16.306L18.6037 2.44444H22.516C23.1991 2.44444 23.7841 2.684 24.2709 3.16311C24.7578 3.64222 25.0008 4.21748 25 4.88889V19.5556C25 20.2278 24.7565 20.8034 24.2697 21.2826C23.7828 21.7617 23.1982 22.0008 22.516 22H2.64398ZM22.516 19.5556V4.88889H17.4859L15.2192 2.44444H9.94072L7.67407 4.88889H2.64398V19.5556H22.516Z" fill="#404040"/>
</svg>
