<svg width="93" height="60" viewBox="0 0 93 60" fill="none" xmlns="http://www.w3.org/2000/svg">
<path d="M62.8939 26.1191C69.8357 26.1191 75.3975 20.4719 75.3975 13.4762C75.3975 6.48052 69.8357 0.833374 62.8939 0.833374C55.9521 0.833374 50.3484 6.48052 50.3484 13.4762C50.3484 20.4719 55.9521 26.1191 62.8939 26.1191ZM29.4394 26.1191C36.3812 26.1191 41.943 20.4719 41.943 13.4762C41.943 6.48052 36.3812 0.833374 29.4394 0.833374C22.4975 0.833374 16.8939 6.48052 16.8939 13.4762C16.8939 20.4719 22.4975 26.1191 29.4394 26.1191ZM29.4394 34.5477C19.6957 34.5477 0.166626 39.4784 0.166626 49.2977V59.8334H58.7121V49.2977C58.7121 39.4784 39.183 34.5477 29.4394 34.5477ZM62.8939 34.5477C61.6812 34.5477 60.3012 34.6319 58.8375 34.7584C63.6884 38.2984 67.0757 43.0605 67.0757 49.2977V59.8334H92.1666V49.2977C92.1666 39.4784 72.6375 34.5477 62.8939 34.5477Z" fill="#EBE9E3"/>
</svg>
